<svg width="32" height="24" viewBox="0 0 32 24" fill="none" xmlns="http://www.w3.org/2000/svg">
<path d="M0 12C0 5.37258 5.37257 0 12 0H22.7368C23.2019 0 23.5789 0.377023 23.5789 0.842104V4.5614C23.5789 5.82099 22.5578 6.8421 21.2982 6.8421H16.1052C13.3729 6.8421 11.1579 9.05711 11.1579 11.7895C11.1579 14.5218 13.3729 16.7368 16.1052 16.7368H21.1579C22.495 16.7368 23.5789 17.8208 23.5789 19.1579V23.1579C23.5789 23.6229 23.2019 24 22.7368 24H12C5.37257 24 0 18.6274 0 12Z" fill="#EBEFFF"/>
<rect x="24.8425" width="7.15789" height="7.15789" rx="3.57894" fill="#EBEFFF"/>
<path d="M24.8425 8C28.7957 8 32.0004 11.2047 32.0004 15.1579V20.421C32.0004 22.3976 30.398 24 28.4214 24C26.4448 24 24.8425 22.3976 24.8425 20.421V19.6842C24.8425 17.3007 22.9103 15.3684 20.5267 15.3684H15.8951C13.8604 15.3684 12.2109 13.7189 12.2109 11.6842C12.2109 9.64948 13.8604 8 15.8951 8H24.8425Z" fill="#EBEFFF"/>
</svg>
